# xmcd
#
# Track frame offsets:
#	150
#	12338
#	26847
#	42120
#	54404
#	68809
#	82257
#	94516
#	109250
#	124583
#	137928
#	150771
#	166530
#	181091
#	195031
#	210347
#	221560
#	237471
#	249597
#	261642
#
# Disc length: 3711 seconds
# Revision: 0
# Processed by: cddbd v1.5.2PL0 Copyright (c) Steve Scherf et al.
# Submitted via: dBpowerAMP V12.0
#
DISCID=080e7d14
DTITLE=Muddy Waters - The Blues
DYEAR=2012
DGENRE=Blues
TTITLE0=Long distance call
TTITLE1=Too young to know
TTITLE2=Honey bee
TTITLE3=Howling wolf
TTITLE4=Country boy
TTITLE5=She moves me
TTITLE6=My fault
TTITLE7=Still a fool
TTITLE8=They call me Muddy Waters
TTITLE9=All night long
TTITLE10=Stuff you gotta watch
TTITLE11=Lonesome day
TTITLE12=Please have mercy
TTITLE13=Who's gonna be your sweet man?
TTITLE14=Standing around crying
TTITLE15=Gone to Main street
TTITLE16=Iodine in my coffee
TTITLE17=Flood
TTITLE18=My life is ruined
TTITLE19=Sad sad day
EXTD=
EXTT0=
EXTT1=
EXTT2=
EXTT3=
EXTT4=
EXTT5=
EXTT6=
EXTT7=
EXTT8=
EXTT9=
EXTT10=
EXTT11=
EXTT12=
EXTT13=
EXTT14=
EXTT15=
EXTT16=
EXTT17=
EXTT18=
EXTT19=
PLAYORDER=
